<svg id="Layer_1" data-name="Layer 1" xmlns="http://www.w3.org/2000/svg" viewBox="0 0 48.88 49.13"><defs><style>.cls-1{fill:#eb632e;stroke:#d55a2a;stroke-miterlimit:10;stroke-width:1.5px;}.cls-2{fill:#f6f4f0;}</style></defs><title>icono5-nar</title><circle class="cls-1" cx="24.47" cy="24.68" r="23.23"/><path class="cls-2" d="M7.78,25.11A17.3,17.3,0,1,1,25.05,42.43,17.31,17.31,0,0,1,7.78,25.11Zm1.38,0A15.91,15.91,0,1,0,25.1,9.23,15.94,15.94,0,0,0,9.16,25.13Z"/><path class="cls-2" d="M21.36,27.83l0.29-.27,4.46-4.46,5.25-5.26a2.68,2.68,0,0,1,1.32-.78,2.4,2.4,0,0,1,2.44,3.8,5.79,5.79,0,0,1-.43.48L24.57,31.46,23.14,32.9a2.52,2.52,0,0,1-1,.66A2.3,2.3,0,0,1,19.72,33c-0.63-.59-1.23-1.21-1.84-1.82L15,28.27c-0.15-.15-0.31-0.3-0.45-0.47a2.41,2.41,0,0,1,2.12-4,2.27,2.27,0,0,1,1.34.63l1.47,1.46,1.65,1.65ZM16.3,25.21a1,1,0,0,0-.78,1.67,3.59,3.59,0,0,0,.33.34l3.67,3.67L20.59,32a1,1,0,0,0,1.54,0l0.25-.24L27.08,27l6.72-6.72A2.17,2.17,0,0,0,34.05,20a1,1,0,0,0,.06-1.06,1,1,0,0,0-.92-0.54,1.15,1.15,0,0,0-.83.41l-4.86,4.86c-1.81,1.81-3.63,3.62-5.43,5.44a0.84,0.84,0,0,1-1.42,0c-0.83-.86-1.69-1.7-2.53-2.54l-1-1A1.09,1.09,0,0,0,16.3,25.21Z"/><path class="cls-2" d="M25.61,40c-0.22,0-.39,0-0.57,0a0.66,0.66,0,0,1-.65-0.63A0.68,0.68,0,0,1,25,38.66a1.77,1.77,0,0,1,.34,0,13,13,0,0,0,4.64-.89,13.36,13.36,0,0,0,5.85-4.36,13.21,13.21,0,0,0,2.29-4.57,3,3,0,0,1,.15-0.45,0.68,0.68,0,0,1,1.29.32,1.62,1.62,0,0,1-.07.34A14.86,14.86,0,0,1,25.61,40Z"/><path class="cls-2" d="M39.93,25.45a3.28,3.28,0,0,1,0,.39,0.68,0.68,0,0,1-1.34,0,3.86,3.86,0,0,1,0-.77,0.68,0.68,0,0,1,1.35,0c0,0.11,0,.23,0,0.35h0Z"/></svg>