<svg id="Layer_1" data-name="Layer 1" xmlns="http://www.w3.org/2000/svg" viewBox="0 0 48.88 49.13"><defs><style>.cls-1{fill:#eb632e;stroke:#d55a2a;stroke-miterlimit:10;stroke-width:1.5px;}.cls-2{fill:#f6f4f0;}</style></defs><title>icono3-nar</title><circle class="cls-1" cx="24.55" cy="24.43" r="23.23"/><path class="cls-2" d="M33.18,15.16l0.29-.65L34,13.34a0.87,0.87,0,0,1,.41-0.48,1.59,1.59,0,0,1,.3-0.1,1.9,1.9,0,0,1,.26,0L35.29,12a1.73,1.73,0,0,1,3.2.06,1.65,1.65,0,0,1,0,1.24l-0.17.4-0.16.41a4.11,4.11,0,0,1,.35.27,0.61,0.61,0,0,1,.11.43l0.69,0.3,0.3,0.13a0.43,0.43,0,0,1,.23.51,1.65,1.65,0,0,1-.1.27l-2.58,6-0.71,1.66a1.7,1.7,0,0,1-.09.2,0.43,0.43,0,0,1-.8-0.29,0.93,0.93,0,0,1,.07-0.21l1.59-3.69L38.8,16a0.59,0.59,0,0,0,0-.1,1.73,1.73,0,0,0-.55-0.26,1.57,1.57,0,0,0-.13.21l-0.76,1.76-2,4.55L33.47,26.6,32,29.95l-1.67,3.89c-0.14.32-.28,0.64-0.42,1a1.16,1.16,0,0,1-.29.41L27.77,37c-0.24.22-.47,0.45-0.71,0.67a0.92,0.92,0,0,1-.87.22,0.89,0.89,0,0,1-.72-0.73,2.07,2.07,0,0,1,0-.39c0-1.1,0-2.2,0-3.29a1.36,1.36,0,0,1,.12-0.56L26.35,31l1.26-2.92,1.45-3.35L31,20.26c0.36-.83.71-1.66,1.08-2.49a1.58,1.58,0,0,0,.14-0.66c0-1.27,0-2.53,0-3.8,0-.1,0-0.19,0-0.29a1.32,1.32,0,0,0-1.12-1.2,4.26,4.26,0,0,0-.58,0H13.81a3.76,3.76,0,0,0-.47,0A1.34,1.34,0,0,0,12.19,13c0,0.1,0,.19,0,0.29q0,12.09,0,24.18c0,0.1,0,.19,0,0.29A1.31,1.31,0,0,0,13.28,39a4,4,0,0,0,.61,0H30.55a3.58,3.58,0,0,0,.54,0,1.3,1.3,0,0,0,1.11-1.24c0-.12,0-0.24,0-0.36q0-2.79,0-5.58a1.81,1.81,0,0,1,0-.36,0.43,0.43,0,0,1,.33-0.35,0.38,0.38,0,0,1,.42.14,0.59,0.59,0,0,1,.1.23,1.11,1.11,0,0,1,0,.25q0,2.93,0,5.86a2.28,2.28,0,0,1-.17,1,2.18,2.18,0,0,1-1.8,1.34,3.53,3.53,0,0,1-.47,0H13.74a2.51,2.51,0,0,1-1.13-.21,2.17,2.17,0,0,1-1.3-1.9c0-.14,0-0.29,0-0.43q0-11.95,0-23.89c0-.13,0-0.27,0-0.4a2.2,2.2,0,0,1,2.11-2.13H31a2.18,2.18,0,0,1,2,1.87,4.37,4.37,0,0,1,0,.54c0,0.51,0,1,0,1.52,0,0.09,0,.19,0,0.28h0.07Zm0.49,8.69-1.36-.6c-0.45-.19-0.89-0.41-1.35-0.56a0.51,0.51,0,0,0-.08.1L26.53,32.84a0.83,0.83,0,0,0,0,.16l0.89,0.39,0.9,0.38a9.09,9.09,0,0,0,.89.36A0.47,0.47,0,0,0,29.26,34Zm1.17-10.2a0.5,0.5,0,0,0-.07.08l-3.24,7.46c-0.08.18-.15,0.36-0.22,0.53a0.09,0.09,0,0,0,0,0l0,0.06a1.64,1.64,0,0,0,.19.11l2.32,1L34.06,23l3.4-7.88,0.08-.2a0.07,0.07,0,0,0,0,0l0-.07C36.65,14.42,35.75,14,34.84,13.65ZM26.4,37a0.27,0.27,0,0,0,.09,0L28.55,35a0.28,0.28,0,0,0,0-.09,0.21,0.21,0,0,0,0-.06L26.49,34a0.65,0.65,0,0,0-.18,0c0,0.12,0,.21,0,0.31q0,0.74,0,1.48c0,0.34,0,.67,0,1A0.19,0.19,0,0,0,26.4,37ZM37.31,13.73a3.73,3.73,0,0,0,.38-0.87,0.85,0.85,0,0,0-.47-1,0.84,0.84,0,0,0-1.05.3,4.52,4.52,0,0,0-.4.91C36.29,13.32,36.79,13.53,37.31,13.73Z"/><path class="cls-2" d="M17.78,14.28a3.43,3.43,0,0,0,0,1.22,0.63,0.63,0,0,0,.38,0h4.52a0.43,0.43,0,0,1,.41.42,0.43,0.43,0,0,1-.41.43H17.84l-0.36,0a0.67,0.67,0,0,1-.59-0.47,1.36,1.36,0,0,1-.07-0.42c0-.41,0-0.82,0-1.23a1.1,1.1,0,0,1,0-.18,0.77,0.77,0,0,1,.76-0.73h8.79l0.43,0a0.75,0.75,0,0,1,.65.71c0,0.28,0,.55,0,0.83s0,0.51,0,.76a0.71,0.71,0,0,1-.5.68,0.88,0.88,0,0,1-.25,0h-2a0.45,0.45,0,0,1-.42-0.23,0.41,0.41,0,0,1,.28-0.62,1.38,1.38,0,0,1,.25,0l1.3,0a0.61,0.61,0,0,0,.35-0.05,3.32,3.32,0,0,0,0-1.17,2.25,2.25,0,0,0-.27,0H17.78Z"/><path class="cls-2" d="M22.21,21h6.91a0.42,0.42,0,0,1,.4.43,0.45,0.45,0,0,1-.38.42H15.57a2.39,2.39,0,0,1-.33,0,0.42,0.42,0,0,1-.37-0.52A0.39,0.39,0,0,1,15.23,21a3,3,0,0,1,.36,0h6.62Z"/><path class="cls-2" d="M22.2,19.13H15.57a2.43,2.43,0,0,1-.33,0,0.42,0.42,0,0,1-.38-0.42,0.41,0.41,0,0,1,.39-0.44H29.12a0.43,0.43,0,0,1,.4.43,0.44,0.44,0,0,1-.38.42,2.3,2.3,0,0,1-.33,0H22.2Z"/><path class="cls-2" d="M20.62,24.67H15.56a2.24,2.24,0,0,1-.32,0,0.43,0.43,0,0,1-.36-0.43,0.4,0.4,0,0,1,.37-0.42H26a0.43,0.43,0,0,1,.39.41,0.44,0.44,0,0,1-.36.44,2,2,0,0,1-.32,0H20.62Z"/><path class="cls-2" d="M19.73,36a2.76,2.76,0,0,1-1.54-.58L17.62,35a1.51,1.51,0,0,0-2.26.57,1.68,1.68,0,0,1-.09.2,0.44,0.44,0,0,1-.56.19,0.43,0.43,0,0,1-.22-0.54,2.23,2.23,0,0,1,1.73-1.52,2.35,2.35,0,0,1,2,.49l0.48,0.38a1.76,1.76,0,0,0,1,.36,1.11,1.11,0,0,0,.88-0.35A4.44,4.44,0,0,0,21,34.37c0-.06.07-0.12,0.12-0.18a0.42,0.42,0,0,1,.74.07,0.35,0.35,0,0,1,0,.35,2.54,2.54,0,0,1-1.46,1.33A4.26,4.26,0,0,1,19.73,36Z"/><path class="cls-2" d="M18,27.44h-2.5a1.55,1.55,0,0,1-.32,0A0.42,0.42,0,0,1,14.87,27a0.4,0.4,0,0,1,.39-0.4h5.57a0.44,0.44,0,0,1,.4.4,0.44,0.44,0,0,1-.32.43,1.3,1.3,0,0,1-.32,0H18Z"/></svg>