<?xml version="1.0" encoding="utf-8"?>
<!-- Generator: Adobe Illustrator 18.1.1, SVG Export Plug-In . SVG Version: 6.00 Build 0)  -->
<svg version="1.1" id="Layer_1" xmlns="http://www.w3.org/2000/svg" xmlns:xlink="http://www.w3.org/1999/xlink" x="0px" y="0px"
	 width="25px" height="25px" viewBox="0 0 25 25" enable-background="new 0 0 25 25" xml:space="preserve">
<g>
	<path fill="#E35B2B" d="M0,13.2c0-0.5,0-1,0-1.5c0-0.2,0-0.4,0.1-0.5c0.3-2.7,1.3-5.1,3.1-7.1c1.9-2.1,4.3-3.5,7.2-4
		c0.5-0.1,0.9-0.1,1.4-0.2h1.5c0.4,0.1,0.8,0.1,1.3,0.2c2.6,0.4,4.9,1.6,6.8,3.4c2.8,2.8,4,6.2,3.7,10.2c-0.2,2.7-1.3,5-3.1,7
		c-2.4,2.6-5.3,4-8.8,4.2c-2.5,0.1-4.8-0.5-6.9-1.7c-3.2-2-5.2-4.8-5.9-8.6C0.1,14.2,0.1,13.7,0,13.2 M12.5,1.6
		c-6,0-10.9,4.9-10.9,10.9c0,6,4.9,11,10.9,11c6,0,10.9-4.9,10.9-10.9C23.5,6.5,18.5,1.6,12.5,1.6"/>
	<path fill="#E35B2B" d="M8.9,10.3c0.3,0.4,0.6,0.8,0.9,1.3c-0.4,0.3-0.7,0.5-1.1,0.8c-0.6,0.5-1.3,1-1.9,1.4
		c-0.5,0.4-0.9,0.3-1.3-0.2c-0.7-0.9-1.4-1.9-2.1-2.8c0-0.1-0.1-0.1-0.1-0.2c0.4-0.3,0.8-0.6,1.2-0.9c0.4,0.5,0.7,0.9,1.1,1.4
		c0.6-2.5,2.1-4.3,4.5-5.2c1.7-0.7,3.4-0.6,5.1,0.1c3.2,1.3,5,4.6,4.2,8c-0.8,3.6-4,5.6-6.9,5.5V18c1.9-0.1,3.5-0.9,4.6-2.5
		c0.8-1.2,1-2.4,0.8-3.8c-0.4-2.8-2.9-4.8-5.8-4.6c-2.9,0.2-4.7,2.6-5,4.6C7.7,11.2,8.3,10.8,8.9,10.3"/>
</g>
</svg>
