<?xml version="1.0" encoding="utf-8"?>
<!-- Generator: Adobe Illustrator 19.0.0, SVG Export Plug-In . SVG Version: 6.00 Build 0)  -->
<svg version="1.1" id="Layer_1" xmlns="http://www.w3.org/2000/svg" xmlns:xlink="http://www.w3.org/1999/xlink" x="0px" y="0px"
	 viewBox="2.5 2.6 45 45" style="enable-background:new 2.5 2.6 45 45;" xml:space="preserve">
<style type="text/css">
	.st0{fill:#F4753B;}
</style>
<g>
	<g>
		<path class="st0" d="M25,47.5c12.4,0,22.5-10.1,22.5-22.5S37.4,2.6,25,2.6S2.5,12.6,2.5,25S12.6,47.5,25,47.5z M25,5.7
			c10.7,0,19.3,8.7,19.3,19.3S35.7,44.3,25,44.3S5.7,35.7,5.7,25S14.3,5.7,25,5.7z"/>
		<path class="st0" d="M21.2,34.9c-0.9,0-1.6,0.7-1.6,1.6s0.7,1.6,1.6,1.6h10.4c0.9,0,1.6-0.7,1.6-1.6s-0.7-1.6-1.6-1.6H28v-14
			c0-0.9-0.7-1.6-1.6-1.6h-5.2c-0.9,0-1.6,0.7-1.6,1.6s0.7,1.6,1.6,1.6h3.6v12.4H21.2z"/>
		<circle class="st0" cx="24.3" cy="14.1" r="2.6"/>
	</g>
</g>
</svg>
