<?xml version="1.0" encoding="utf-8"?>
<!-- Generator: Adobe Illustrator 19.0.0, SVG Export Plug-In . SVG Version: 6.00 Build 0)  -->
<svg version="1.1" id="Capa_1" xmlns="http://www.w3.org/2000/svg" xmlns:xlink="http://www.w3.org/1999/xlink" x="0px" y="0px"
	 viewBox="-105 197 400 400" style="enable-background:new -105 197 400 400;" xml:space="preserve">
<style type="text/css">
	.st0{fill:#F4753B;}
</style>
<g>
	<g>
		<path class="st0" d="M-46.4,255.6c-78,78-78,204.8,0,282.8s204.8,78,282.8,0s78-204.8,0-282.8S31.6,177.6-46.4,255.6z
			 M217.9,519.9c-67.7,67.7-178,67.7-245.8,0s-67.7-178,0-245.8s178-67.7,245.8,0S285.6,452.2,217.9,519.9z"/>
		<path class="st0" d="M142,331.5l-47,47l-47-47c-5.1-5.1-13.4-5.1-18.5,0s-5.1,13.4,0,18.5l47,47l-47,47c-5.1,5.1-5.1,13.4,0,18.5
			c5.1,5.1,13.4,5.1,18.5,0l47-47l47,47c5.1,5.1,13.4,5.1,18.5,0c5.1-5.1,5.1-13.4,0-18.5l-47-47l47-47c5.1-5.1,5.1-13.4,0-18.5
			C155.4,326.4,147,326.4,142,331.5z"/>
	</g>
</g>
</svg>
