<?xml version="1.0" encoding="utf-8"?>
<!-- Generator: Adobe Illustrator 19.0.0, SVG Export Plug-In . SVG Version: 6.00 Build 0)  -->
<svg version="1.1" id="Capa_1" xmlns="http://www.w3.org/2000/svg" xmlns:xlink="http://www.w3.org/1999/xlink" x="0px" y="0px"
	 viewBox="0 0 50 50" style="enable-background:new 0 0 50 50;" xml:space="preserve">
<style type="text/css">
	.st0{fill:#025E75;}
</style>
<g>
	<path class="st0" d="M40.7,3.1h-7.8c0,0,0,0,0,0c-0.7-0.9-1.8-1.6-3.1-1.6h-2C27.1,0.6,26.1,0,25,0s-2.1,0.6-2.7,1.6h-2
		c-1.3,0-2.4,0.6-3.1,1.6c0,0,0,0,0,0H9.3C7.2,3.1,5.5,4.9,5.5,7v39.1c0,2.1,1.7,3.9,3.9,3.9h31.3c2.1,0,3.9-1.7,3.9-3.9V7
		C44.5,4.9,42.8,3.1,40.7,3.1z M17.9,5.4C17.9,4.1,19,3,20.3,3h2.5c0.3,0,0.6-0.2,0.7-0.5c0.2-0.6,0.8-1.1,1.5-1.1
		c0.7,0,1.3,0.4,1.5,1.1C26.6,2.8,26.9,3,27.2,3h2.5c1.3,0,2.4,1.1,2.4,2.4v2.4H17.9V5.4z M43.1,46.1c0,1.3-1.1,2.4-2.4,2.4H9.3
		c-1.3,0-2.4-1.1-2.4-2.4V7c0-1.3,1.1-2.4,2.4-2.4h7.2c-0.1,0.3-0.1,0.5-0.1,0.8v3.1c0,0.4,0.3,0.7,0.7,0.7h15.7
		c0.4,0,0.7-0.3,0.7-0.7V5.4c0-0.3,0-0.6-0.1-0.8h7.2c1.3,0,2.4,1.1,2.4,2.4V46.1z"/>
	<path class="st0" d="M40.7,6.3H36c-0.4,0-0.7,0.3-0.7,0.7s0.3,0.7,0.7,0.7h4v27.5H32c-1.3,0-2.3,1-2.3,2.3v4.7
		c0,0.4,0.3,0.7,0.7,0.7s0.7-0.3,0.7-0.7v-4.7c0-0.5,0.4-0.8,0.8-0.8h6.8l-8.7,8.7H10.1V7.7h4c0.4,0,0.7-0.3,0.7-0.7
		S14.4,6.3,14,6.3H9.3C8.9,6.3,8.6,6.6,8.6,7v39.1c0,0.4,0.3,0.7,0.7,0.7h21.1c0,0,0,0,0,0c0,0,0,0,0.1,0c0,0,0,0,0,0c0,0,0,0,0,0
		c0,0,0,0,0,0c0,0,0,0,0,0c0,0,0,0,0,0c0,0,0,0,0,0c0,0,0,0,0,0c0,0,0,0,0,0c0,0,0,0,0,0c0,0,0,0,0,0c0,0,0,0,0,0c0,0,0,0,0,0
		c0,0,0,0,0.1-0.1l10.2-10.2c0,0,0,0,0,0c0,0,0,0,0.1-0.1c0,0,0,0,0,0c0,0,0-0.1,0.1-0.1c0,0,0,0,0,0c0,0,0-0.1,0-0.1c0,0,0,0,0,0
		c0,0,0-0.1,0-0.1c0,0,0,0,0,0c0,0,0-0.1,0-0.1c0,0,0,0,0,0c0,0,0,0,0,0V7C41.4,6.6,41.1,6.3,40.7,6.3z"/>
	<path class="st0" d="M25,3.1c-0.2,0-0.4,0.1-0.5,0.2c-0.1,0.1-0.2,0.3-0.2,0.5c0,0.2,0.1,0.4,0.2,0.5c0.1,0.1,0.3,0.2,0.5,0.2
		c0.2,0,0.4-0.1,0.5-0.2c0.1-0.1,0.2-0.3,0.2-0.5s-0.1-0.4-0.2-0.5C25.4,3.2,25.2,3.1,25,3.1z"/>
	<path class="st0" d="M28.1,14.8H36c0.4,0,0.7-0.3,0.7-0.7s-0.3-0.7-0.7-0.7h-7.8c-0.4,0-0.7,0.3-0.7,0.7S27.7,14.8,28.1,14.8z"/>
	<path class="st0" d="M25.8,17.9H36c0.4,0,0.7-0.3,0.7-0.7c0-0.4-0.3-0.7-0.7-0.7H25.8c-0.4,0-0.7,0.3-0.7,0.7
		C25,17.6,25.4,17.9,25.8,17.9z"/>
	<path class="st0" d="M36,19.6h-7.8c-0.4,0-0.7,0.3-0.7,0.7c0,0.4,0.3,0.7,0.7,0.7H36c0.4,0,0.7-0.3,0.7-0.7
		C36.7,19.9,36.4,19.6,36,19.6z"/>
	<path class="st0" d="M36,22.7H14c-0.4,0-0.7,0.3-0.7,0.7c0,0.4,0.3,0.7,0.7,0.7H36c0.4,0,0.7-0.3,0.7-0.7
		C36.7,23,36.4,22.7,36,22.7z"/>
	<path class="st0" d="M36,25.8H14c-0.4,0-0.7,0.3-0.7,0.7s0.3,0.7,0.7,0.7H36c0.4,0,0.7-0.3,0.7-0.7S36.4,25.8,36,25.8z"/>
	<path class="st0" d="M36,29H14c-0.4,0-0.7,0.3-0.7,0.7c0,0.4,0.3,0.7,0.7,0.7H36c0.4,0,0.7-0.3,0.7-0.7C36.7,29.3,36.4,29,36,29z"
		/>
	<path class="st0" d="M36.7,32.8c0-0.4-0.3-0.7-0.7-0.7H14c-0.4,0-0.7,0.3-0.7,0.7c0,0.4,0.3,0.7,0.7,0.7H36
		C36.4,33.6,36.7,33.2,36.7,32.8z"/>
	<path class="st0" d="M27.3,35.2h-6.3c-0.4,0-0.7,0.3-0.7,0.7s0.3,0.7,0.7,0.7h6.3c0.4,0,0.7-0.3,0.7-0.7S27.8,35.2,27.3,35.2z"/>
	<path class="st0" d="M27.3,38.4h-3.1c-0.4,0-0.7,0.3-0.7,0.7s0.3,0.7,0.7,0.7h3.1c0.4,0,0.7-0.3,0.7-0.7S27.8,38.4,27.3,38.4z"/>
	<path class="st0" d="M13.3,16.4c0,0.4,0.3,0.7,0.7,0.7h3.2v3.2c0,0.4,0.3,0.7,0.7,0.7s0.7-0.3,0.7-0.7v-3.2h3.2
		c0.4,0,0.7-0.3,0.7-0.7c0-0.4-0.3-0.7-0.7-0.7h-3.2v-3.2c0-0.4-0.3-0.7-0.7-0.7s-0.7,0.3-0.7,0.7v3.2H14
		C13.6,15.7,13.3,16,13.3,16.4z"/>
</g>
</svg>
