<?xml version="1.0" encoding="utf-8"?>
<!-- Generator: Adobe Illustrator 19.0.0, SVG Export Plug-In . SVG Version: 6.00 Build 0)  -->
<svg version="1.1" id="Capa_1" xmlns="http://www.w3.org/2000/svg" xmlns:xlink="http://www.w3.org/1999/xlink" x="0px" y="0px"
	 viewBox="181 0.8 338 336.5" style="enable-background:new 181 0.8 338 336.5;" xml:space="preserve">
<style type="text/css">
	.st0{fill:#025E75;}
</style>
<g>
	<path class="st0" d="M509.3,253.4l-48.9-48.9c-6.6-6.5-15.3-10.1-24.7-10.1c-9.8,0-19,3.8-26,10.8l-19,19
		c-14.8-8.2-34.4-19.5-54.8-39.9c-20.4-20.4-31.7-40-39.9-54.8l19-19c14.2-14.2,14.4-36.9,0.6-50.7l-48.8-48.8
		c-6.5-6.6-15.3-10.2-24.7-10.2c-9.6,0-18.6,3.7-25.5,10.4c-4.2,3.4-25.2,22-33.1,60.3c-11,53.6,14.3,105.3,87.1,178.1
		c81.4,81.4,150.9,87.7,170.2,87.7c4,0,6.5-0.2,7.1-0.3c38-4.4,51.5-21.3,61.5-33.6C522.2,287.4,522.2,266.4,509.3,253.4z
		 M493.1,290.1c-9.3,11.6-18.1,22.5-47.6,25.9c0,0-1.6,0.2-4.7,0.2c-17.3,0-79.7-5.9-155.4-81.5c-67.2-67.2-90.8-113.3-81.4-159.1
		c6.8-33.4,25-47.6,25.7-48.2l0.6-0.5l0.5-0.6c3-3,7-4.7,11.2-4.7c3.8,0,7.3,1.4,9.9,4l48.9,48.9c5.6,5.6,5.3,15.1-0.7,21.1
		l-21.5,21.5l-0.4,0.4c-5.6,6.2-4.9,14.5-1.9,20c8.9,16.1,21.1,38.1,44.6,61.6c23.4,23.4,45.4,35.6,61.5,44.5
		c1.6,0.9,4.9,2.4,9.1,2.4c4.9,0,9.4-2.1,12.7-5.9l20.2-20.2c3-3,7-4.7,11.1-4.7c3.8,0,7.3,1.4,9.9,4l48.8,48.8
		C500.6,274.4,498.1,283.9,493.1,290.1z"/>
	<path class="st0" d="M385.8,52.1c18,2.1,39.2,13,54.1,27.8c15,15,25.9,36.4,27.9,54.6c0.6,5.4,5.1,9.4,10.4,9.4
		c0.4,0,0.8,0,1.1-0.1c5.8-0.6,9.9-5.8,9.3-11.6c-2.5-23-15.5-48.8-33.9-67.2c-18.2-18.2-43.7-31.2-66.5-33.8
		c-5.8-0.7-11,3.5-11.6,9.2C375.9,46.3,380,51.5,385.8,52.1z"/>
	<path class="st0" d="M376,96.1c9.7,1.1,23.2,8.4,32.1,17.2c8.9,8.9,16.2,22.5,17.2,32.4c0.6,5.4,5.1,9.4,10.4,9.4
		c0.4,0,0.8,0,1.1-0.1c5.8-0.6,9.9-5.8,9.3-11.6c-1.8-16.8-13-34.7-23.2-44.9c-10.2-10.2-27.9-21.3-44.5-23.2
		c-5.8-0.7-11,3.5-11.6,9.2C366.1,90.2,370.2,95.4,376,96.1z"/>
</g>
</svg>
