<?xml version="1.0" encoding="utf-8"?>
<!-- Generator: Adobe Illustrator 19.0.0, SVG Export Plug-In . SVG Version: 6.00 Build 0)  -->
<svg version="1.1" id="Capa_1" xmlns="http://www.w3.org/2000/svg" xmlns:xlink="http://www.w3.org/1999/xlink" x="0px" y="0px"
	 viewBox="-1.5 -1.5 47.2 47.2" style="enable-background:new -1.5 -1.5 47.2 47.2;" xml:space="preserve">
<style type="text/css">
	.st0{fill:#F4753B;}
</style>
<g>
	<path class="st0" d="M22.1-1.5C9.1-1.5-1.5,9.1-1.5,22.1S9.1,45.7,22.1,45.7c13,0,23.6-10.6,23.6-23.6S35.1-1.5,22.1-1.5z
		 M22.1,41.2C11.6,41.2,3,32.7,3,22.1C3,11.6,11.6,3,22.1,3s19.1,8.6,19.1,19.1C41.2,32.7,32.7,41.2,22.1,41.2z"/>
	<path class="st0" d="M20.9,12.9c-0.8-0.9-2.3-0.9-3.2,0c-0.9,0.9-0.9,2.3,0,3.2l5.7,5.7l-5.7,5.7c-0.4,0.4-0.7,1-0.7,1.6
		c0,0.6,0.2,1.2,0.7,1.6c0.4,0.4,1,0.7,1.6,0.7c0.6,0,1.2-0.2,1.6-0.7l7.3-7.3c0.9-0.9,0.9-2.3,0-3.2L20.9,12.9z"/>
</g>
</svg>
