<?xml version="1.0" encoding="utf-8"?>
<!-- Generator: Adobe Illustrator 19.0.0, SVG Export Plug-In . SVG Version: 6.00 Build 0)  -->
<svg version="1.1" id="Capa_1" xmlns="http://www.w3.org/2000/svg" xmlns:xlink="http://www.w3.org/1999/xlink" x="0px" y="0px"
	 viewBox="56.7 0 612 725.3" style="enable-background:new 56.7 0 612 725.3;" xml:space="preserve">
<style type="text/css">
	.st0{fill:#F4753B;}
</style>
<g>
	<g id="In">
		<g>
			<path class="st0" d="M215.3,374c0,9.4,3.8,17.9,10,24l113.3,113.3c6.2,6.2,14.7,10,24,10s17.9-3.8,24-10L500,398
				c6.2-6.1,10-14.6,10-24c0-18.8-15.2-34-34-34c-9.4,0-17.9,3.8-24,10l-55.3,55.3V34c0-18.8-15.2-34-34-34s-34,15.2-34,34v371.3
				L273.4,350c-6.1-6.2-14.6-10-24-10C230.5,340,215.3,355.2,215.3,374z M623.3,158.7H498.7c-18.8,0-34,15.2-34,34s15.2,34,34,34
				h102v430.7h-476V226.7h102c18.8,0,34-15.2,34-34s-15.2-34-34-34H102c-25,0-45.3,20.4-45.3,45.3v476c0,25,20.3,45.3,45.3,45.3
				h521.3c25,0,45.3-20.4,45.3-45.3V204C668.7,179,648.3,158.7,623.3,158.7z"/>
		</g>
	</g>
</g>
</svg>
