<svg id="Layer_1" data-name="Layer 1" xmlns="http://www.w3.org/2000/svg" viewBox="0 0 48.88 49.13"><defs><style>.cls-1{fill:#eb632e;stroke:#d55a2a;stroke-miterlimit:10;stroke-width:1.5px;}.cls-2{fill:#f6f4f0;}</style></defs><title>icono2-nar</title><circle class="cls-1" cx="24.55" cy="24.68" r="23.23"/><path class="cls-2" d="M41.78,33.44a3.39,3.39,0,0,1-.26.38,1.29,1.29,0,0,1-1,.43H39.42c-0.65,0-1.3,0-1.95,0a1.09,1.09,0,0,0-.72.24,5.46,5.46,0,0,1-2.36,1A5.71,5.71,0,0,1,30,34.56a1.69,1.69,0,0,0-1.07-.32c-0.86,0-1.73,0-2.6,0a4.1,4.1,0,0,1-.51,0,1.26,1.26,0,0,1-1-1.1c0-.11,0-0.22,0-0.32q0-1.14,0-2.27a1.75,1.75,0,0,1,0-.37,0.5,0.5,0,0,1,.5-0.4,0.5,0.5,0,0,1,.5.34,1.41,1.41,0,0,1,.05.41c0,0.7,0,1.39,0,2.09s0,0.58.56,0.58h2c0.09-.15,0-0.22-0.08-0.3a5.76,5.76,0,0,1-.85-2.14,8.6,8.6,0,0,1-.11-1.24c0-.74,0-1.48,0-2.22a2,2,0,0,1,0-.28,0.53,0.53,0,0,1,.65-0.5l0.18,0a3.5,3.5,0,0,0,1.92,0,9.1,9.1,0,0,0,2.64-1.21,22.93,22.93,0,0,0,3.63-2.94c0.19-.18.37-0.37,0.56-0.55a0.55,0.55,0,0,1,.92,0A5.72,5.72,0,0,1,39,24a6.24,6.24,0,0,1,.28,1.87q0,1.76,0,3.52a6.24,6.24,0,0,1-1,3.59,1.47,1.47,0,0,0-.09.19l0.25,0h2.09a0.26,0.26,0,0,0,.28-0.29c0-.08,0-0.15,0-0.23,0-2.5,0-5,0-7.51a7.48,7.48,0,0,0-4.44-6.83,7.09,7.09,0,0,0-2.69-.63,7.65,7.65,0,0,0-2.57.29,7.26,7.26,0,0,0-4.6,4,7.07,7.07,0,0,0-.65,3c0,0.88,0,1.76,0,2.64a2.25,2.25,0,0,1,0,.37,0.51,0.51,0,0,1-.55.45,0.5,0.5,0,0,1-.5-0.46,2.12,2.12,0,0,1,0-.32c0-.88,0-1.76,0-2.64a8.4,8.4,0,0,1,5.85-8,8.62,8.62,0,0,1,11,6c0,0.18.06,0.36,0.1,0.55s0.06,0.2.09,0.31v9.64ZM28.45,27.73c0,0.15,0,.25,0,0.36,0,0.49,0,1,0,1.48a6.42,6.42,0,0,0,.07.83,4.86,4.86,0,0,0,9.66-.55c0-1.45,0-2.9,0-4.36a4.64,4.64,0,0,0-.68-2.28,1.21,1.21,0,0,0-.2-0.2L37,23.3c-0.54.48-1.07,1-1.63,1.44A16.12,16.12,0,0,1,31.81,27a6.7,6.7,0,0,1-2.53.69C29,27.74,28.76,27.73,28.45,27.73Z"/><path class="cls-2" d="M20.29,29.74a6.37,6.37,0,0,1-6.2,5.86,6.16,6.16,0,0,1-4.33-1.69,6.42,6.42,0,0,1-2-4.17l-0.42-.1a2.44,2.44,0,0,1-1.72-3.29,1.23,1.23,0,0,0,.07-0.63c-0.17-1.27-.32-2.54-0.49-3.81a3,3,0,0,1,2-3.31l0.39-.12c0-.11.07-0.24,0.1-0.38a4.12,4.12,0,0,1,1.89-2.64,3.58,3.58,0,0,1,1.56-.56c0.48,0,1-.05,1.43-0.06a0.86,0.86,0,0,1,.32.06,0.52,0.52,0,0,1,.34.59,0.51,0.51,0,0,1-.48.43c-0.34,0-.68,0-1,0a3.08,3.08,0,0,0-1.74.56,3,3,0,0,0-1.3,2.25c0,0.09,0,.19,0,0.28a0.55,0.55,0,0,1-.47.5l-0.28,0a1.87,1.87,0,0,0-1.67,2c0.05,0.63.14,1.26,0.22,1.89,0.05,0.43.11,0.86,0.17,1.29,0,0.1,0,.21.06,0.33A1.84,1.84,0,0,0,7.2,24.9l0.51-.11a1.1,1.1,0,0,0,.11-0.47,6.33,6.33,0,0,1,2.25-4,3.56,3.56,0,0,1,.33-0.25,0.57,0.57,0,0,1,.69,0l0.11,0.09A9.4,9.4,0,0,0,14.85,22a18.18,18.18,0,0,0,4,.64l0.46,0a0.61,0.61,0,0,1,.6.49,7.73,7.73,0,0,1,.3,1.35c0,0.08,0,.15,0,0.23L21.2,25a1.27,1.27,0,0,0,.09-0.25q0.19-1.45.37-2.9c0-.11,0-0.22,0-0.32a1.89,1.89,0,0,0-1.68-2l-0.23,0a0.55,0.55,0,0,1-.51-0.6,2.17,2.17,0,0,1,0-.23,2.48,2.48,0,0,0-2.45-2.77c-0.49,0-1,0-1.48,0a3.28,3.28,0,0,1-.37,0,0.53,0.53,0,0,1-.46-0.45,0.5,0.5,0,0,1,.28-0.54,1.08,1.08,0,0,1,.4-0.08c0.56,0,1.11,0,1.67,0a3.54,3.54,0,0,1,2.92,1.62A3.36,3.36,0,0,1,20.37,18c0,0.15,0,.31,0,0.47l0.4,0.15a3,3,0,0,1,1.95,3.27c-0.16,1.24-.32,2.48-0.48,3.72a1,1,0,0,0,.1.62,2.42,2.42,0,0,1-1,3.15,4.48,4.48,0,0,1-.78.28Zm-9.57-8.52c-0.12.1-.2,0.16-0.28,0.24A5.05,5.05,0,0,0,8.86,25c0,1.47,0,2.94,0,4.4a4.92,4.92,0,0,0,.35,1.76,5.16,5.16,0,0,0,5.33,3.27,5,5,0,0,0,3.73-2.23,5,5,0,0,0,.91-2.87c0-1.39,0-2.78,0-4.17a4.15,4.15,0,0,0,0-.6,2.3,2.3,0,0,0-.19-0.8l-0.15,0-0.32,0a18,18,0,0,1-3.7-.58,11.5,11.5,0,0,1-3.43-1.49ZM7.73,26a1.22,1.22,0,0,0-1.2,1.22A1.27,1.27,0,0,0,7.7,28.57a0.19,0.19,0,0,0,0-.07q0-1.11,0-2.22C7.75,26.17,7.74,26.06,7.73,26Zm12.6,2.61a1.28,1.28,0,0,0,1.17-1.39A1.23,1.23,0,0,0,20.32,26,16.35,16.35,0,0,0,20.33,28.57Z"/></svg>