<svg id="Layer_1" data-name="Layer 1" xmlns="http://www.w3.org/2000/svg" viewBox="0 0 48.88 49.13"><defs><style>.cls-1{fill:none;stroke:#185f74;stroke-miterlimit:10;stroke-width:1.5px;}.cls-2{fill:#185f74;}</style></defs><title>icono1</title><circle class="cls-1" cx="24.25" cy="24.6" r="23.23"/><path class="cls-2" d="M6.28,20.38A9.16,9.16,0,0,1,6.81,19a3.86,3.86,0,0,1,3.49-2.08c2.25,0,4.49,0,6.74,0a0.7,0.7,0,0,1,.79.56,0.65,0.65,0,0,1-.42.72,1.73,1.73,0,0,1-.49,0H10.44a2.7,2.7,0,0,0-2.71,2,3.08,3.08,0,0,0-.11.82q0,6.42,0,12.85a2.7,2.7,0,0,0,2.76,2.78c0.33,0,.67,0,1,0a0.8,0.8,0,0,1,.79.45c0.68,1.19,1.36,2.37,2,3.55L14.42,41l0.2-.33c0.66-1.14,1.34-2.28,2-3.44a1,1,0,0,1,1-.61q7.48,0,15,0a2.72,2.72,0,0,0,2.93-2.93q0-6.12,0-12.25V21c-0.11.18-.18,0.27-0.24,0.37q-2.42,4.19-4.84,8.37a2,2,0,0,1-.52.59c-1.28.95-2.57,1.88-3.85,2.82a0.79,0.79,0,0,1-.92.18,0.73,0.73,0,0,1-.32-0.84,0.86,0.86,0,0,0,0-.15H12.59c-0.65,0-1-.21-1-0.66S12,31,12.61,31H25l0.29-2.67h-13a0.65,0.65,0,0,1-.61-0.6A0.64,0.64,0,0,1,12.1,27a2,2,0,0,1,.5,0H25.21a0.51,0.51,0,0,0,.52-0.29c0.43-.78.88-1.54,1.37-2.38H12.28a0.65,0.65,0,0,1-.66-0.62A0.67,0.67,0,0,1,12.21,23a2.66,2.66,0,0,1,.4,0H27.5a0.56,0.56,0,0,0,.57-0.33c0.78-1.37,1.57-2.74,2.36-4.1l0.2-.37H23.44c-0.61,0-.93-0.22-0.93-0.66s0.32-.67.92-0.67h7.64a0.51,0.51,0,0,0,.52-0.3c1.08-1.89,2.2-3.76,3.25-5.67a3.5,3.5,0,0,1,2.55-2.07h0.53l0.22,0.06a2.76,2.76,0,0,1,2.18,1.9c0.05,0.14.09,0.29,0.14,0.44V12a11.76,11.76,0,0,1-.55,1.31c-1.07,1.89-2.17,3.77-3.25,5.66a0.71,0.71,0,0,0-.07.42,13.36,13.36,0,0,1,.26,1.7c0,4.19,0,8.38,0,12.58a4,4,0,0,1-4.23,4.24H18a0.49,0.49,0,0,0-.49.29c-0.79,1.4-1.6,2.8-2.42,4.18a3.64,3.64,0,0,1-.58.61H14.29a3.37,3.37,0,0,1-.56-0.58c-0.76-1.28-1.52-2.56-2.23-3.87a1,1,0,0,0-1.1-.64A3.89,3.89,0,0,1,7,36.18a4.86,4.86,0,0,1-.71-1.78v-14Zm29.06-7.65L27,27.25l2.54,1.47L37.88,14.2ZM36,11.58L38.56,13A9.7,9.7,0,0,0,39,12.18a1.36,1.36,0,0,0-.23-1.46,1.4,1.4,0,0,0-1.43-.5A2.05,2.05,0,0,0,36,11.58Zm-9.42,17L26.3,31.32l2.22-1.62Z"/><path class="cls-2" d="M20.16,18.19a0.66,0.66,0,0,1-.65-0.66,0.66,0.66,0,1,1,1.33,0A0.65,0.65,0,0,1,20.16,18.19Z"/></svg>