<svg id="Layer_1" data-name="Layer 1" xmlns="http://www.w3.org/2000/svg" viewBox="0 0 48.88 49.13"><defs><style>.cls-1{fill:none;stroke:#185f74;stroke-miterlimit:10;stroke-width:1.5px;}.cls-2{fill:#185f74;}</style></defs><title>icono4-01-01-01</title><circle class="cls-1" cx="24.47" cy="24.64" r="23.23"/><path class="cls-2" d="M39.37,18.73a29.24,29.24,0,0,1-.57,5.81,30.15,30.15,0,0,1-.95,3.63,31.46,31.46,0,0,1-1.6,4,30.52,30.52,0,0,1-4.15,6.39,27.9,27.9,0,0,1-6.84,5.9l-0.45.27a0.76,0.76,0,0,1-.9,0c-0.69-.45-1.41-0.87-2.09-1.35a27.81,27.81,0,0,1-6-5.8,31,31,0,0,1-4-6.92A31.9,31.9,0,0,1,10.06,25c-0.21-1-.35-1.92-0.48-2.88a42,42,0,0,1-.2-5.32,0.69,0.69,0,0,1,.28-0.65A1.27,1.27,0,0,1,10.06,16a7.27,7.27,0,0,0,1.38-.39,6.51,6.51,0,0,0,4-4.79c0-.14,0-0.29.09-0.43a0.66,0.66,0,0,1,.67-0.52H32.57a0.65,0.65,0,0,1,.65.54c0,0.17.07,0.34,0.11,0.51a6.57,6.57,0,0,0,5,5l0.43,0.09a0.69,0.69,0,0,1,.59.71C39.37,17.42,39.37,18.07,39.37,18.73Zm-15,24.62,0.25-.13A23.38,23.38,0,0,0,27,41.56a27.58,27.58,0,0,0,6.4-7.09,29.88,29.88,0,0,0,4.27-11.4A32.29,32.29,0,0,0,38,17.56a1.78,1.78,0,0,0,0-.24,8.06,8.06,0,0,1-6-6H17.08l-0.3,0a8,8,0,0,1-6,6c0,0.12,0,.23,0,0.35,0,0.44,0,.87,0,1.31A29.52,29.52,0,0,0,11,22.85a30.15,30.15,0,0,0,.77,3.67,29.44,29.44,0,0,0,4.39,9.25A27.12,27.12,0,0,0,23,42.5C23.47,42.8,23.91,43.07,24.35,43.35Z"/><path class="cls-2" d="M13.49,20.19c0-.23,0-0.39,0-0.55a0.63,0.63,0,0,1,.3-0.55l0.3-.18a10.74,10.74,0,0,0,4.33-4.37,2.21,2.21,0,0,1,.13-0.23A0.66,0.66,0,0,1,19.1,14h0.35c3.29,0,6.58,0,9.86,0a1.06,1.06,0,0,1,1.07.64,10.38,10.38,0,0,0,4.25,4.26A1,1,0,0,1,35.26,20a28.86,28.86,0,0,1-.86,5.42,27.31,27.31,0,0,1-2.32,5.92,25.18,25.18,0,0,1-5.82,7.34c-0.43.37-.89,0.71-1.34,1.05a1.19,1.19,0,0,1-.34.19,0.72,0.72,0,0,1-.69-0.15c-0.47-.37-1-0.72-1.4-1.11a24.7,24.7,0,0,1-5.41-6.62,27.84,27.84,0,0,1-2.66-6.43,24.07,24.07,0,0,1-.75-3.81Zm1.39-.14c0,0.26,0,.51,0,0.75a26.32,26.32,0,0,0,1.52,6.66,25.74,25.74,0,0,0,4.46,7.7,21.54,21.54,0,0,0,2.39,2.42,0.76,0.76,0,0,0,.38.24,1.57,1.57,0,0,0,0-.48q0-3.6,0-7.2a3.84,3.84,0,0,1,0-.44,0.67,0.67,0,0,1,1.33,0c0,0.14,0,.29,0,0.44q0,3.6,0,7.2c0,0.15,0,.31,0,0.49a0.75,0.75,0,0,0,.38-0.24,22.38,22.38,0,0,0,2.27-2.29,25.77,25.77,0,0,0,4.5-7.52,25.39,25.39,0,0,0,1.23-4.27c0.18-.9.29-1.81,0.39-2.72a2.61,2.61,0,0,0,0-.74,12.73,12.73,0,0,1-2.63-2,13.24,13.24,0,0,1-2-2.64l-0.13,0h-3.8a1.5,1.5,0,0,0-.23,0c0,0.18,0,.33,0,0.49q0,3.67,0,7.33c0,0.15,0,.29,0,0.44a0.67,0.67,0,0,1-1.33,0,3.44,3.44,0,0,1,0-.44q0-2.51,0-5c0-.83,0-1.66,0-2.49a0.45,0.45,0,0,0-.09-0.38H19.54A12.44,12.44,0,0,1,14.88,20.05Z"/><path class="cls-2" d="M25,26.67a0.67,0.67,0,0,1-.67.7A0.68,0.68,0,1,1,25,26.67Z"/></svg>